<svg xmlns="http://www.w3.org/2000/svg"  viewBox="0 0 48 48" width="48px" height="48px"><path fill="#33691e" d="M2 9H46V39H2z"/><path fill="#fff" d="M20.989,17c-0.023-0.001-0.057,0.012-0.106,0.041c-0.108,0.073-0.323,0.296-0.33,0.554c-0.007,0.145-0.034,0.145,0.061,0.237c0.069,0.099,0.137,0.089,0.276,0.017c0.08-0.059,0.107-0.096,0.133-0.194c0.033-0.165-0.174,0.078-0.2-0.106c-0.046-0.17,0.086-0.241,0.211-0.406C21.038,17.065,21.04,17.002,20.989,17L20.989,17z"/><path fill="#fff" d="M23.008,17.011c-0.039,0.005-0.086,0.055-0.152,0.174c-0.047,0.125-0.25,0.314-0.104,0.704c0.12,0.247,0.169,0.649,0.115,1.096c-0.083,0.127-0.102,0.171-0.211,0.298c-0.153,0.165-0.319,0.123-0.446,0.061c-0.119-0.08-0.212-0.121-0.267-0.376c0.01-0.406,0.033-1.07-0.041-1.211c-0.109-0.218-0.29-0.14-0.367-0.074c-0.37,0.339-0.553,0.91-0.665,1.365c-0.103,0.331-0.212,0.236-0.289,0.102c-0.187-0.175-0.2-1.546-0.426-1.321c-0.362,1.034,0.208,2.166,0.602,2.056c0.285,0.118,0.465-0.424,0.582-1.017c0.08-0.166,0.141-0.186,0.182-0.1c-0.011,0.789,0.057,0.965,0.259,1.204c0.452,0.349,0.826,0.044,0.856,0.015c0.029-0.029,0.352-0.352,0.352-0.352c0.078-0.082,0.182-0.087,0.293-0.015c0.108,0.098,0.094,0.266,0.324,0.383c0.194,0.078,0.608,0.019,0.704-0.148c0.129-0.221,0.161-0.298,0.22-0.382c0.092-0.123,0.25-0.068,0.25-0.03c-0.015,0.068-0.107,0.136-0.044,0.259c0.11,0.082,0.135,0.029,0.2,0.011c0.229-0.11,0.402-0.607,0.402-0.607c0.01-0.186-0.095-0.172-0.163-0.133c-0.088,0.054-0.093,0.072-0.182,0.126c-0.112,0.017-0.33,0.091-0.437-0.076c-0.11-0.2-0.11-0.48-0.194-0.682c0-0.015-0.147-0.318-0.011-0.337c0.068,0.013,0.216,0.051,0.239-0.072c0.072-0.12-0.155-0.46-0.309-0.632c-0.134-0.147-0.319-0.165-0.498-0.015c-0.126,0.115-0.107,0.244-0.132,0.367c-0.032,0.14-0.026,0.314,0.117,0.5c0.125,0.247,0.353,0.564,0.278,1.011c0,0-0.132,0.213-0.365,0.185c-0.097-0.021-0.255-0.063-0.339-0.683c-0.064-0.47,0.016-1.127-0.183-1.435C23.111,17.115,23.072,17.002,23.008,17.011L23.008,17.011z"/><path fill="#fff" d="M22.369 17.061c-.06.005-.127.075-.182.211-.047.103-.104.643-.094.643-.037.161.168.229.261.022.14-.378.141-.54.15-.7C22.482 17.115 22.429 17.056 22.369 17.061L22.369 17.061zM24.729 17.104c-.062.006-.111.042-.13.133-.025.215-.012.332.024.511.028.119.202.319.287.435.409.549.802 1.101 1.182 1.672.06.424.103.839.132 1.252.062.906.08 2.033.024 2.987.17.007.442-.274.537-.685.062-.569-.022-1.729-.028-2.065-.004-.139-.013-.306-.022-.48.442.722.87 1.487 1.291 2.326.153-.073.119-.936.03-1.058-.337-.725-.802-1.44-.95-1.715-.054-.099-.236-.377-.452-.696-.04-.456-.083-.843-.111-.959-.069-.482.198.054.161-.226-.087-.482-.353-.809-.667-1.25-.101-.143-.099-.173-.256.035-.093.212-.092.388-.065.554-.041-.06-.092-.131-.165-.219-.271-.233-.288-.245-.513-.435C24.967 17.172 24.832 17.094 24.729 17.104L24.729 17.104zM31.722 17.176c-.03-.005-.063.01-.1.065-.071.062-.147.174-.144.319.017.254.062.514.08.769.006.034.012.068.019.102-.027-.035-.051-.062-.065-.076-.495-.52.228-.085-.094-.487-.272-.299-.352-.394-.585-.574-.117-.076-.188-.22-.226.026-.015.216-.031.466-.017.648-.001.101.104.292.194.404.331.406.668.838 1.008 1.289.071.92.09 1.763.163 2.684-.01.394-.131.917-.246.967 0 0-.175.101-.293-.011-.085-.034-.426-.569-.426-.569-.174-.16-.291-.114-.415 0-.342.331-.497.95-.73 1.376-.06.095-.229.176-.417-.007-.477-.652-.198-1.579-.257-1.341-.425.479-.237 1.272-.141 1.443.14.28.253.46.526.598.248.183.442.069.548-.059.25-.259.253-.921.37-1.052.082-.241.288-.199.389-.093.097.14.212.231.356.307.233.206.511.243.785.056.187-.105.309-.242.419-.511.118-.315.059-1.964.033-2.882.176.248.35.501.522.757.076.806.11 1.599.085 2.36-.018.151.528-.452.524-.737-.002-.25 0-.476 0-.687.265.423.521.852.763 1.287.15-.08.099-.929.004-1.046-.254-.425-.578-.885-.83-1.241-.05-.449-.117-.979-.148-1.141-.048-.253-.096-.633-.169-.933-.02-.117-.08-.492-.061-.528.03-.084.141.003.196-.094.082-.09-.286-1.043-.472-1.315-.067-.122-.189-.08-.339.119-.139.13-.088.428-.035.711.138.722.262 1.456.359 2.189-.181-.269-.401-.594-.619-.907-.006-.03-.028-.141-.028-.143 0-.013-.03-.59-.056-.728-.004-.056-.018-.072.041-.065.062.052.071.055.109.072.063.011.117-.094.08-.193-.194-.358-.388-.717-.582-1.074C31.778 17.205 31.752 17.18 31.722 17.176L31.722 17.176zM13.673 17.194c-.107-.003-.226.064-.18.193-.027.07.21.308.252.439.037.093-.037.393.041.42.072.031.17-.207.207-.428.021-.121.005-.534-.276-.619C13.703 17.197 13.689 17.195 13.673 17.194L13.673 17.194z"/><path fill="#fff" d="M34.234 17.197c-.024.002-.054.042-.1.139-.11.18-.148.502-.104.787.265 1.79.461 3.523.502 5.11-.023.151-.029.231-.1.42-.156.2-.329.451-.491.572-.162.121-.508.236-.62.326-.358.207-.36.445-.07.454.499-.058 1.09-.099 1.496-.713.109-.172.237-.639.243-.924.038-1.674-.021-3.311-.272-4.521-.016-.118-.068-.389-.048-.424.032-.083.196.008.254-.087.085-.087-.422-.737-.6-1.015C34.287 17.251 34.265 17.194 34.234 17.197L34.234 17.197zM29 17.224c-.021.004-.051.035-.107.109-.139.456-.188.828-.135 1.111.358 1.869.725 3.572.667 5.351.17.001.366-.389.45-.774.046-.531-.031-.855-.044-1.167-.014-.312-.353-2.846-.422-3.082-.083-.447.33-.059.285-.319-.143-.328-.5-.804-.611-1.089C29.039 17.289 29.034 17.218 29 17.224L29 17.224zM16.256 17.26c-.044.008-.086.044-.102.104-.01.039.017.104-.019.124-.02.021-.098.007-.094-.102 0-.035-.025-.071-.041-.093-.015-.01-.026-.013-.054-.013-.034.001-.033.01-.052.039-.008.029-.019.057-.019.091-.004.039-.02.052-.048.057-.032 0-.024.003-.05-.013-.015-.017-.033-.023-.033-.052 0-.03-.008-.077-.017-.096-.014-.018-.035-.027-.059-.033-.133 0-.143.153-.135.211-.01.011-.015.282.167.357.244.116.701.067.682-.326 0-.035-.008-.152-.011-.183C16.345 17.274 16.299 17.252 16.256 17.26L16.256 17.26zM19.526 17.263c-.084.004-.159.028-.222.061-.162.155-.199.403-.072.557.124.058.247.183.165.252-.35.374-1.262.999-1.308 1.113 0 .001-.002.003-.002.004 0 .001 0 .003 0 .004 0 0 0 .002 0 .002 0 .001.001.003.002.004 0 0 .002.002.002.002 0 0 .002 0 .002 0 0 0 .001.002.002.002 0 0 .001 0 .002 0 0 0 .002.002.002.002.046.031.617.03.68.002 0 0 .001-.002.002-.002 0 0 .002 0 .002 0 0 0 0-.002 0-.002.196-.072 1.126-1.135 1.126-1.135-.048-.041-.093-.072-.141-.113-.052-.045-.046-.089 0-.133.23-.134.157-.429.037-.563C19.705 17.274 19.611 17.259 19.526 17.263L19.526 17.263zM28.076 17.267c-.024.002-.054.04-.1.137-.11.18-.185.494-.176.787.238 1.648.311 3.091.467 4.74.013.159-.011.391-.117.483-.392.409-.957.914-1.572 1.146-.066.074.165.391.463.391.499-.058.938-.338 1.345-1.076.109-.172.3-.54.306-.826.038-1.674-.084-2.976-.335-4.186-.016-.118-.005-.257.015-.293.032-.039.142.001.2-.094.085-.087-.228-.809-.406-1.087C28.129 17.319 28.107 17.264 28.076 17.267L28.076 17.267z"/><path fill="#fff" d="M14.831,17.317c-0.069,0.008-0.134,0.064-0.165,0.139c-0.012,0.264-0.013,0.529,0.017,0.772c0.12,0.427,0.158,0.803,0.217,1.241c0.016,0.586-0.339,0.254-0.322-0.037c0.082-0.377,0.06-0.972-0.013-1.122c-0.058-0.151-0.125-0.188-0.265-0.163c-0.111-0.007-0.399,0.307-0.48,0.826c0,0-0.067,0.266-0.096,0.504c-0.039,0.268-0.217,0.458-0.341-0.037c-0.107-0.36-0.173-1.247-0.352-1.039c-0.051,0.692-0.112,1.91,0.476,2.035c0.712,0.068,0.318-1.203,0.576-1.434c0.049-0.114,0.139-0.116,0.146,0.028v1.08c-0.007,0.351,0.224,0.455,0.404,0.528c0.187-0.014,0.31-0.009,0.383,0.172c0.029,0.622,0.06,1.246,0.089,1.869c0,0,0.431,0.124,0.452-1.05c0.021-0.689-0.137-1.268-0.044-1.402c0.003-0.132,0.172-0.138,0.289-0.074c0.186,0.131,0.268,0.293,0.557,0.228c0.44-0.121,0.705-0.335,0.711-0.672c-0.026-0.321-0.063-0.642-0.202-0.963c0.019-0.058-0.084-0.21-0.065-0.269c0.079,0.124,0.199,0.114,0.226,0c-0.075-0.247-0.191-0.483-0.38-0.585c-0.156-0.137-0.383-0.108-0.467,0.178c-0.039,0.329,0.119,0.72,0.359,1.039c0.051,0.125,0.122,0.332,0.091,0.519c-0.128,0.073-0.254,0.043-0.361-0.07c0,0-0.35-0.262-0.35-0.32c0.093-0.595,0.02-0.663-0.031-0.828c-0.036-0.228-0.144-0.3-0.232-0.456c-0.088-0.093-0.206-0.093-0.263,0c-0.155,0.268-0.082,0.844,0.03,1.102c0.081,0.237,0.205,0.385,0.146,0.385c-0.048,0.134-0.148,0.103-0.22-0.052c-0.103-0.32-0.124-0.796-0.124-1.011c-0.031-0.266-0.065-0.835-0.241-0.98C14.94,17.333,14.885,17.311,14.831,17.317L14.831,17.317z"/><path fill="#fff" d="M17.33 17.321c-.035.004-.074.025-.12.035-.151.048-.293.179-.248.433.179 1.086.295 1.916.474 3.002.027.127-.079.295-.217.278-.234-.158-.292-.479-.691-.465-.289.003-.618.318-.659.62-.048.241-.065.501 0 .711.203.244.446.218.659.163.175-.072.32-.245.382-.204 0 0 .002 0 .002 0 0 0 0 .002 0 .002.038.067-.004.632-.826 1.069-.505.227-.908.281-1.124-.132-.134-.258.01-1.24-.32-1.013-.976 2.517 2.288 2.868 2.652.104.024-.078.096-.156.146-.137.022.009.043.04.05.096-.076 2.503-2.525 2.675-2.941 1.887-.103-.186-.134-.599-.144-.846-.019-.15-.056-.236-.1-.27-.099-.075-.233.12-.261.457-.041.272-.03.346-.03.607.131 1.977 3.283 1.128 3.795-.506.254-.844-.005-1.481.08-1.559.001-.001.003-.001.004-.002.001 0 .003-.001.004-.002.001 0 .003-.002.004-.002.003-.001.008-.002.011-.002.313.337.752.043.848-.074.041-.058.145-.096.217-.02.244.175.672.093.761-.217.052-.303.095-.614.106-.937-.159.049-.287.086-.339.141-.012.013-.021.028-.024.044-.014.089-.027.179-.041.269-.001.007-.004.014-.007.02-.007.011-.018.021-.03.028-.056.031-.154.013-.159-.069-.076-.344-.387-.389-.576.144-.127.103-.359.123-.383-.031.031-.358-.113-.406-.402-.237-.093-.708-.185-1.385-.278-2.093.12-.003.231.084.341-.054-.119-.37-.371-1.124-.513-1.195-.001-.001-.003-.001-.004-.002-.006-.008-.014-.015-.02-.02-.003-.002-.007-.006-.009-.007-.003-.002-.007-.004-.009-.006-.006-.003-.013-.006-.019-.007C17.356 17.321 17.343 17.32 17.33 17.321L17.33 17.321zM27.07 17.327c-.125-.004-.263.075-.209.232-.031.085.268.375.317.533.087.243-.066.476.024.509.083.038.199-.251.243-.519.05-.216-.104-.659-.322-.75C27.105 17.328 27.088 17.327 27.07 17.327L27.07 17.327zM19.482 17.593c.057-.006.126.046.159.12.036.079.018.154-.041.169-.059.014-.134-.038-.17-.117-.036-.079-.018-.156.041-.17C19.474 17.594 19.478 17.594 19.482 17.593zM33.558 17.958c-.114-.004-.238.082-.189.252-.029.092.243.406.287.578.04.122-.06.516.022.552.076.041.183-.272.222-.561.022-.158-.095-.714-.294-.813C33.591 17.961 33.574 17.959 33.558 17.958L33.558 17.958zM25.775 18.151c.01.046.021.093.028.141.023.103.043.205.065.306-.09-.124-.164-.224-.196-.259C25.468 18.096 25.676 18.179 25.775 18.151L25.775 18.151zM27.568 19.032c-.044.008-.086.046-.102.106-.01.039.019.103-.017.122-.02.021-.1.009-.096-.1 0-.035-.025-.073-.041-.094-.015-.01-.026-.013-.054-.013-.034.001-.033.01-.052.039-.008.029-.019.058-.019.091-.004.039-.018.052-.046.057-.032 0-.026.003-.052-.013-.015-.017-.033-.023-.033-.052 0-.03-.008-.077-.017-.096-.014-.018-.035-.025-.059-.031-.133 0-.141.152-.133.209-.01.011-.017.284.165.359.244.116.703.065.683-.328 0-.035-.01-.152-.013-.183C27.658 19.047 27.612 19.025 27.568 19.032L27.568 19.032z"/><path fill="#fff" d="M19.382 19.114c-.03-.003-.069.008-.115.035-.216.117-.299.463-.165.665.125.178.324.113.35.113.211.026.337-.396.337-.396s.006-.119-.244.106c-.106.02-.12-.018-.146-.078-.022-.11-.017-.221.033-.332C19.456 19.161 19.432 19.119 19.382 19.114L19.382 19.114zM30.954 19.168c-.12-.006-.247.072-.28.235 0 .096.044.149.035.237-.012.05-.064.083-.187.024.019-.018-.08-.157-.08-.157-.096-.058-.224.003-.307.057-.046.083-.08.226-.028.372.138.254.61.689.835.693.004-.229.026-.534.039-.724.005-.072.022-.151.091-.169.069-.018.188.069.189-.006-.012-.146-.042-.361-.124-.463C31.095 19.205 31.026 19.171 30.954 19.168L30.954 19.168zM21.375 19.966c-.003.001-.006.004-.009.006-.001.001-.004.003-.006.004-.024.018-.052.059-.115.104-.106.121-.125.205-.119.446.006.026.201.568.367.95.112.397.215.851.139 1.28-.261.567-.786 1.076-1.293 1.352-.258.083-.481.055-.541-.002 0 0-.001-.001-.002-.002-.148-.1-.152-.277-.143-.307 0 0 0-.002 0-.002 0 0 .002-.002.002-.002.428-.298.916-.539 1.298-1.343.113-.307.147-.492.035-.967-.044-.177-.098-.323-.219-.448 0 0 .002-.002.002-.002.073-.035.262.104.291.017-.045-.227-.198-.531-.372-.687-.152-.138-.318-.154-.457-.028-.157.087-.19.401-.115.676.084.207.311.243.472.659 0 0 0 .002 0 .002.003.026.055.311-.026.426-.066.206-.914.875-.974.915-.001.001-.005.003-.006.004 0 0-.002.002-.002.002 0 0-.001.001-.002.002 0 0-.002.002-.002.002 0 0-.002 0-.002 0 0 0-.001 0-.002 0 0 0-.002-.002-.002-.002 0 0 0-.002 0-.002 0-.001-.002-.003-.002-.004-.003-.017.002-.059 0-.128-.006-.125.046-.409.043-.457 0 0 0-.002 0-.002 0 0-.002-.002-.002-.002 0 0 0-.002 0-.002 0 0-.002 0-.002 0-.28.181-.373.736-.424.9-.71.49-1.516.855-1.98 1.352-.242.378 1.666-.434 1.887-.532.002.001.004.004.006.006.042.046.046.208.172.354.198.269.62.434 1.03.332.688-.249 1.084-.717 1.487-1.237.058-.084.148-.15.232-.085.277.621 1.076 1.062 2.11 1.108.239-.291.125-.434.028-.495-.03-.02-.514-.209-.589-.396-.047-.175.068-.33.298-.446.663-.08 1.315-.169 1.947-.372.006-.212.131-.529.215-.667.058-.096.095-.105.109-.119 0 0 .001-.001.002-.002 0 0 .002-.002.002-.002 0 0 .002-.002.002-.002 0-.001 0-.003 0-.004 0-.004 0-.011-.002-.019l-.107-.063-2.117-.009c-.026-.01-.046-.02-.057-.03-.001-.001-.003-.003-.004-.004 0 0-.001-.001-.002-.002 0 0-.002-.001-.002-.002 0-.001-.002-.003-.002-.004 0 0-.002-.002-.002-.002 0 0 0-.002 0-.002 0 0-.002-.002-.002-.002 0 0 0-.002 0-.002 0 0 0-.002 0-.002 0 0 0-.002 0-.002 0 0 0-.002 0-.002 0 0 0-.001 0-.002 0 0 0-.002 0-.002 0 0 0-.002 0-.002 0 0 0-.002 0-.002 0 0 .002-.002.002-.002 0-.001.001-.003.002-.004.01-.014.035-.027.067-.039.506-.069 1.404-.216 1.463-1.08-.009-.45-.193-.744-.745-.826-.406.031-.695.424-.648.856-.019.116.039.345-.08.37-.778.071-1.627.559-1.656.908 0 0-.002 0-.002 0 0 0-.002.002-.002.002-.001 0-.003.001-.004.002-.001 0-.003 0-.004 0-.001 0-.004.002-.006.002 0 0-.001 0-.002 0-.001 0-.003 0-.004 0 0 0-.001 0-.002 0-.001 0-.003 0-.004 0-.002 0-.006-.001-.007-.002-.051-.014-.116-.098-.106-.215-.03-.603-.226-1.286-.533-1.811-.11-.11-.158-.154-.189-.159-.001 0-.003 0-.004 0-.001 0-.004 0-.006 0 0 0-.002 0-.002 0 0 0-.002 0-.002 0C21.377 19.966 21.376 19.966 21.375 19.966L21.375 19.966z"/><path fill="#fff" d="M23.402 20.284c-.044.008-.086.044-.102.104-.01.039.019.104-.017.124-.02.021-.1.009-.096-.1 0-.035-.025-.073-.041-.094-.015-.01-.024-.013-.052-.013-.034.001-.035.01-.054.039-.008.029-.019.058-.019.091-.004.039-.018.052-.046.057-.032 0-.024.003-.05-.013-.015-.017-.035-.023-.035-.052 0-.03-.006-.077-.015-.096-.013-.018-.037-.025-.061-.031-.133 0-.141.152-.133.209-.01.011-.017.284.165.359.244.116.825.048.683-.328 0-.035-.009-.152-.013-.183C23.491 20.299 23.446 20.277 23.402 20.284L23.402 20.284zM31.579 20.62c-.006-.001-.013-.001-.02.002 0 0-1.13.804-1.158.832-.112.1-.056.45 0 .409.081.031 1.218-.74 1.196-.83C31.647 21.036 31.671 20.636 31.579 20.62L31.579 20.62zM24.469 20.739c.046-.005.107.011.165.044.084.049.136.122.13.176 0 .001 0 .004 0 .006 0 .001-.003.004-.004.006 0 .001-.001.004-.002.006 0 .001-.001.003-.002.004 0 .001-.001.003-.002.004-.003.005-.007.009-.011.013-.041.038-.134.032-.222-.019-.084-.048-.135-.123-.13-.176 0-.001.002-.004.002-.006.001-.007.004-.013.007-.019.001-.002.002-.005.004-.007 0 0 .002-.001.002-.002.002-.003.006-.007.009-.009C24.429 20.749 24.448 20.741 24.469 20.739L24.469 20.739zM14.577 20.943c-.585.011-1.442.767-1.465 1.187.618-.297 1.224-.582 1.852-.889C14.862 21.089 14.958 20.953 14.577 20.943L14.577 20.943zM16.473 21.206c.057.001.118.029.15.109.029.074.001.151-.033.189 0 0 0 .002 0 .002-.001.001-.001.003-.002.004-.025.032-.111.019-.172.019-.074-.003-.111-.015-.156-.076-.021-.067.044-.133.072-.183 0 0 .002-.001.002-.002.003-.005.008-.01.013-.015.022-.02.061-.039.102-.044C16.457 21.206 16.465 21.205 16.473 21.206L16.473 21.206zM31.359 21.438c-.104.013-.203.111-.157.269-.029.092.141.416.185.587.04.122-.051.467.031.504.076.041.276-.205.269-.513.022-.158-.056-.742-.256-.841C31.408 21.438 31.383 21.435 31.359 21.438L31.359 21.438zM18.881 21.597c-.091.006-.172.055-.136.183-.005.093.257.206.273.422.038.089-.056.373.022.4.072.03.171-.197.209-.407.021-.115-.09-.518-.279-.59C18.942 21.598 18.912 21.595 18.881 21.597L18.881 21.597zM22.627 22.109c.007 0 .013 0 .02 0 .001 0 .002 0 .004 0 .233.063.578.07.876.101.243.015.364.206.136.286-.225.077-.441.137-.442.462.03.161.023.245-.002.284-.002.003-.005.007-.007.009 0 0-.002.002-.002.002 0 0-.002.002-.002.002 0 0-.001.002-.002.002l-.002.002c-.001 0-.003.002-.004.002-.003.002-.007.004-.011.005-.003.001-.008.001-.011.002-.053.008-.131-.043-.189-.073-.139-.1-.528-.341-.583-.858C22.399 22.219 22.487 22.118 22.627 22.109L22.627 22.109zM13.479 22.506c-.015 0-.044.044-.082.094-.345.549-.375 1.369-.185 1.613.101.116.268.166.39.13.217-.094.312-.533.26-.693-.072-.113-.13-.131-.202-.035-.152.309-.216.098-.229-.075-.023-.328.008-.63.044-.869C13.494 22.549 13.493 22.506 13.479 22.506L13.479 22.506zM25.221 23.227c-.026-.001-.053.003-.081.017-.005 0-.247.163-.324.277-.047.036-.042.067-.027.13.037.085.102.058.176.018.098-.013.146.051.138.169-.045.147.02.202.02.211 0 .009.094.09.205.026.234-.089.38-.176.708-.248.086-.002.081-.232-.055-.24-.178.009-.341.018-.519.158-.109.025-.128-.041-.152-.101-.028-.148.062-.252.044-.363C25.358 23.285 25.298 23.232 25.221 23.227L25.221 23.227zM32.74 23.508c-.044.001-.089.007-.156.013-.072.015-.097.047-.11.134.005.132.086.126.169.178.048.061.079.116-.004.216-.078.072-.134.111-.213.183-.037.063-.06.16.053.191.209.059.693-.256.693-.262.078-.059.052-.17.046-.17-.046-.052-.149-.021-.218-.029-.033 0-.141-.016-.09-.112.043-.06.059-.095.088-.169.033-.072.004-.12-.114-.16C32.825 23.51 32.783 23.507 32.74 23.508L32.74 23.508zM30.289 29.555c0 0-.001.002-.002.002-.348.089-.337.45-.114.609-3.672 0-9.307-.062-10.516-.062-.676 0-2.815-.081-2.856-.081.459.671 1.123.808 1.993.821 1.631 0 9.188-.02 11.339-.02-.153.271.014.708.134.788.003.002.007.004.009.005.004.002.01.004.015.005.001 0 .004 0 .005 0 .142.034.205-.069.253-.145.231.02 1.531.039 1.65-.002 0 0 .001-.002.002-.002.08.118.16.23.314.211.268-.057.479-.087.486-.631 0 0-.027-.927-.636-.869-.144.022-.548.062-.548.062-.468-.056-.811-.061-1.336-.081.049-.062.134-.311.029-.402-.027-.023-.068-.035-.125-.031 0 0-.001 0-.002 0-.001 0-.003 0-.004 0 0 0-.001-.002-.002-.002-.002-.001-.004-.001-.005-.002-.003-.002-.007-.006-.009-.009-.001-.001-.003-.003-.004-.004-.027-.039-.041-.134-.059-.158 0 0-.002-.002-.002-.002 0 0-.002-.002-.002-.002-.001 0-.003-.002-.004-.002 0 0-.002 0-.002 0C30.29 29.555 30.289 29.555 30.289 29.555L30.289 29.555z"/><path fill="#fff" d="M29.848,31.193c0.001,0,0.001,0,0.002,0c0.536,0.026,1.039,0.005,1.575,0.031c0.085,0.072,0.042,0.238-0.013,0.268c-0.002,0.001-0.007,0.003-0.009,0.004c-0.002,0-0.005,0-0.007,0c-0.002,0-0.005,0-0.007,0c-0.174-0.004-0.275-0.008-0.449-0.013c0-0.009-0.001-0.018-0.004-0.026c-0.041-0.122-0.34-0.114-0.411-0.018c-0.001,0.001-0.003,0.004-0.004,0.005c-0.001,0.002-0.003,0.005-0.004,0.007c-0.001,0.002-0.003,0.007-0.004,0.009c-0.001,0.004-0.001,0.009-0.002,0.013c0,0.004-0.002,0.01-0.002,0.015c-0.235,0.028-0.447-0.008-0.682-0.017C29.759,31.386,29.767,31.23,29.848,31.193L29.848,31.193z"/></svg>