<svg width="106" height="30" viewBox="0 0 106 30" fill="none" xmlns="http://www.w3.org/2000/svg">
<path fill-rule="evenodd" clip-rule="evenodd" d="M30.4339 6.15888C29.2926 6.60618 28.1514 6.96402 26.8199 7.05348C28.1514 6.3378 29.1024 5.17482 29.578 3.83292C28.3416 4.5486 27.0101 4.9959 25.5835 5.26428C24.4422 4.1013 22.8254 3.38562 21.1135 3.38562C17.6897 3.38562 14.8365 5.97996 14.8365 9.28997C14.8365 9.73727 14.9316 10.1846 15.0267 10.6319C9.79592 10.3635 5.23083 8.03753 2.18744 4.45914C1.6168 5.35374 1.33148 6.3378 1.33148 7.41131C1.33148 9.46889 2.47276 11.2581 4.08956 12.3316C3.04339 12.3316 2.09233 12.0632 1.23638 11.6159V11.7054C1.23638 14.5681 3.42382 16.8941 6.277 17.4308C5.70636 17.5203 5.23083 17.6097 4.66019 17.6097C4.27977 17.6097 3.89935 17.6097 3.51892 17.5203C4.27977 19.8462 6.65742 21.546 9.32039 21.6354C7.22806 23.2457 4.46998 24.1403 1.5217 24.1403C1.04617 24.1403 0.47553 24.1403 0 24.0509C2.75807 25.7506 6.08678 26.6452 9.60571 26.6452C21.1135 26.6452 27.3905 17.6992 27.3905 9.91619C27.3905 9.64781 27.3905 9.37943 27.3905 9.20051C28.5318 8.39537 29.578 7.32185 30.4339 6.15888Z" fill="#4699C2"/>
<path fill-rule="evenodd" clip-rule="evenodd" d="M76.7031 6.38674C76.2555 5.29204 75.6288 4.36575 74.7336 3.60788C73.8384 2.85001 72.9432 2.17635 71.7794 1.75531C70.6156 1.33427 69.4518 1.08164 67.9299 1.08164C66.408 0.997437 65.9604 0.997437 62.29 0.997437C58.6196 0.997437 58.172 0.997437 56.6501 1.08164C55.1282 1.16585 53.9644 1.33427 52.8006 1.75531C51.6368 2.17635 50.6521 2.7658 49.8464 3.60788C49.0407 4.44996 48.3245 5.29204 47.8769 6.38674C47.4293 7.48144 47.1607 8.57614 47.1607 10.0077C47.0712 11.4392 47.0712 11.8602 47.0712 15.3128C47.0712 18.7653 47.0712 19.1863 47.1607 20.6179C47.2502 22.0494 47.4293 23.1441 47.8769 24.2388C48.3245 25.3335 48.9511 26.2598 49.8464 27.0177C50.7416 27.7755 51.6368 28.4492 52.8006 28.8702C53.9644 29.2913 55.1282 29.5439 56.6501 29.5439C58.172 29.6281 58.6196 29.6281 62.29 29.6281C65.9604 29.6281 66.408 29.6281 67.9299 29.5439C69.4518 29.4597 70.6156 29.2913 71.7794 28.8702C72.9432 28.4492 73.9279 27.8597 74.7336 27.0177C75.5393 26.1756 76.2555 25.3335 76.7031 24.2388C77.1507 23.1441 77.4193 22.0494 77.4193 20.6179C77.5088 19.1864 77.5088 18.7653 77.5088 15.313V15.3128V15.3126C77.5088 11.8602 77.5088 11.4392 77.4193 10.0077C77.3298 8.57614 77.1507 7.48144 76.7031 6.38674ZM73.838 20.4489C73.7485 21.7963 73.5694 22.4699 73.3008 22.9752C73.0323 23.6488 72.6742 24.1541 72.1371 24.6593C71.5999 25.1646 71.0628 25.5014 70.3466 25.754L70.2395 25.7879C69.7134 25.9546 69.0002 26.1806 67.6609 26.2593H62.2896C58.7087 26.2593 58.2611 26.2593 56.8287 26.1751C55.3964 26.0909 54.6802 25.9225 54.143 25.6698C53.4269 25.4172 52.8897 25.0804 52.3526 24.5751C51.8155 24.0699 51.4574 23.5646 51.1888 22.891L51.1528 22.7902C50.9756 22.2953 50.7354 21.6245 50.6517 20.3647V15.3123C50.6517 11.944 50.6517 11.5229 50.7412 10.1756C50.8307 8.82826 51.0097 8.1546 51.2783 7.64935C51.5469 6.97569 51.905 6.47044 52.4421 5.9652C52.9792 5.45995 53.5164 5.12312 54.2326 4.87049L54.3397 4.83667C54.8658 4.66996 55.5789 4.44398 56.9182 4.36525H62.2896C65.8705 4.36525 66.3181 4.36525 67.7505 4.44945C69.1828 4.53366 69.899 4.70208 70.4361 4.9547C71.1523 5.20732 71.6894 5.54416 72.2266 6.0494C72.7637 6.55465 73.1218 7.0599 73.3904 7.73356L73.4263 7.83432C73.6036 8.3292 73.8438 9.00001 73.9275 10.2598V15.3123C73.9275 18.6806 73.9275 19.1016 73.838 20.4489ZM69.899 9.75455C70.8384 9.75455 71.5999 9.03823 71.5999 8.1546C71.5999 7.27097 70.8384 6.55465 69.899 6.55465C68.9596 6.55465 68.1981 7.27097 68.1981 8.1546C68.1981 9.03823 68.9596 9.75455 69.899 9.75455ZM54.4116 15.3123C54.4116 11.1861 57.903 7.90197 62.2896 7.90197C66.6762 7.90197 70.1676 11.1861 70.1676 15.3123C70.1676 19.4384 66.6762 22.7226 62.2896 22.7226C57.903 22.7226 54.4116 19.4384 54.4116 15.3123ZM57.9925 15.3123C57.9925 17.5017 59.962 19.3542 62.2896 19.3542C64.6172 19.3542 66.5867 17.5017 66.5867 15.3123C66.5867 13.1229 64.6172 11.2703 62.2896 11.2703C59.962 11.2703 57.9925 13.1229 57.9925 15.3123Z" fill="#4699C2"/>
<path d="M105.324 16.4811H101.87V29.6272H96.6371V16.4811H94.1482V11.8611H96.6371V8.87139C96.6371 6.73343 97.6146 3.38562 101.917 3.38562L105.793 3.40247V7.88701H102.981C102.519 7.88701 101.871 8.12647 101.871 9.14634V11.8654H105.781L105.324 16.4811Z" fill="#4699C2"/>
</svg>
