<svg width="22" height="22" viewBox="0 0 22 22" fill="none" xmlns="http://www.w3.org/2000/svg">
<path fill-rule="evenodd" clip-rule="evenodd" d="M10.5887 21.2696C16.3969 21.2696 21.1054 16.5097 21.1054 10.638C21.1054 4.76636 16.3969 0.00643921 10.5887 0.00643921C4.78049 0.00643921 0.0720215 4.76636 0.0720215 10.638C0.0720215 16.5097 4.78049 21.2696 10.5887 21.2696Z" fill="#637381"/>
<path d="M13.831 15.2031C14.0252 15.0576 14.0678 14.8181 13.9494 14.4799L12.9597 11.5542L15.4884 9.7555C15.7821 9.54886 15.9004 9.32814 15.8247 9.09802C15.7489 8.8679 15.5263 8.75519 15.1617 8.75989L12.0599 8.78337L11.1176 5.84352C11.0039 5.50069 10.8334 5.32224 10.5872 5.32224C10.3457 5.32224 10.1752 5.50069 10.0616 5.84352L9.11919 8.78337L6.01743 8.75989C5.65279 8.75519 5.43022 8.8679 5.35445 9.09802C5.27395 9.32814 5.39707 9.54886 5.69068 9.7555L8.21944 11.5542L7.22972 14.4799C7.11133 14.8181 7.15395 15.0576 7.34811 15.2031C7.54226 15.3534 7.78851 15.3018 8.08211 15.0904L10.5872 13.2636L13.097 15.0904C13.3906 15.3018 13.6321 15.3534 13.831 15.2031Z" fill="#C4CDD5"/>
</svg>
